# This file uses centimeters as units for non-parametric coordinates.

mtllib Single Plank.mtl
g default
v -0.250718 -0.015838 0.033469
v 0.250718 -0.015838 0.033469
v -0.250718 0.015838 0.033469
v 0.250718 0.015838 0.033469
v -0.250718 0.015838 -0.033469
v 0.250718 0.015838 -0.033469
v -0.250718 -0.015838 -0.033469
v 0.250718 -0.015838 -0.033469
vt 0.917301 0.188484
vt 0.108505 0.741191
vt 0.135468 0.785735
vt 0.948260 0.230427
vt 0.086944 0.731459
vt 0.912588 0.167187
vt 0.059792 0.686477
vt 0.881314 0.124891
vn 0.000000 0.000000 1.000000
vn 0.000000 0.000000 1.000000
vn 0.000000 0.000000 1.000000
vn 0.000000 0.000000 1.000000
vn 0.000000 1.000000 0.000000
vn 0.000000 1.000000 0.000000
vn 0.000000 1.000000 0.000000
vn 0.000000 1.000000 0.000000
vn 0.000000 0.000000 -1.000000
vn 0.000000 0.000000 -1.000000
vn 0.000000 0.000000 -1.000000
vn 0.000000 0.000000 -1.000000
vn 0.000000 -1.000000 0.000000
vn 0.000000 -1.000000 0.000000
vn 0.000000 -1.000000 0.000000
vn 0.000000 -1.000000 0.000000
vn 1.000000 0.000000 0.000000
vn 1.000000 0.000000 0.000000
vn 1.000000 0.000000 0.000000
vn 1.000000 0.000000 0.000000
vn -1.000000 0.000000 0.000000
vn -1.000000 0.000000 0.000000
vn -1.000000 0.000000 0.000000
vn -1.000000 0.000000 0.000000
s off
g pCube1
usemtl initialShadingGroup
f 1/1/1 2/2/2 4/3/3 3/4/4
f 3/4/5 4/3/6 6/5/7 5/6/8
f 5/6/9 6/5/10 8/7/11 7/8/12
f 7/8/13 8/7/14 2/2/15 1/1/16
f 2/2/17 8/7/18 6/5/19 4/3/20
f 7/8/21 1/1/22 3/4/23 5/6/24
